<?xml version="1.0" standalone="no"?>
<!DOCTYPE svg PUBLIC "-//W3C//DTD SVG 20010904//EN"
 "http://www.w3.org/TR/2001/REC-SVG-20010904/DTD/svg10.dtd">
<svg version="1.0" xmlns="http://www.w3.org/2000/svg"
 width="960.000000pt" height="960.000000pt" viewBox="0 0 960.000000 960.000000"
 preserveAspectRatio="xMidYMid meet">
<metadata>
Created by potrace 1.14, written by Peter Selinger 2001-2017
</metadata>
<g transform="translate(0.000000,960.000000) scale(0.100000,-0.100000)"
fill="#000000" stroke="none">
<path d="M847 8864 c-2 -3 -20 -7 -38 -9 -53 -6 -85 -14 -147 -36 -80 -28
-192 -81 -192 -91 0 -4 -5 -8 -10 -8 -32 0 -196 -156 -228 -217 -7 -12 -18
-27 -25 -35 -18 -18 -101 -189 -122 -253 -20 -58 -54 -194 -61 -245 -3 -19 -7
-42 -10 -50 -11 -29 -14 -250 -4 -250 6 0 10 -6 10 -12 0 -22 46 -67 86 -85
26 -11 58 -16 94 -13 153 9 296 1 368 -22 18 -5 39 -11 45 -12 60 -13 275
-124 285 -148 2 -5 8 -8 14 -8 11 0 118 -82 178 -136 141 -128 136 -122 104
-119 -16 2 -56 6 -89 9 -77 8 -135 15 -161 20 -12 2 -43 7 -70 10 -27 4 -114
20 -194 37 -80 16 -158 32 -173 35 -16 3 -82 21 -148 39 -113 31 -123 33 -170
21 -89 -23 -132 -83 -131 -181 1 -81 19 -261 27 -275 2 -3 6 -30 10 -60 4 -30
9 -58 11 -61 2 -3 6 -21 9 -40 3 -19 11 -52 17 -74 5 -22 12 -47 13 -55 2 -8
4 -17 5 -20 1 -3 3 -9 4 -15 17 -89 187 -291 289 -344 15 -8 27 -18 27 -23 0
-4 6 -8 14 -8 8 0 16 -3 18 -7 6 -15 130 -79 292 -152 59 -27 391 -138 426
-143 14 -2 27 -6 30 -9 3 -4 21 -9 40 -13 42 -6 151 -33 155 -38 1 -2 5 -50 9
-108 3 -58 8 -114 10 -125 2 -11 7 -40 10 -65 3 -25 8 -56 11 -70 3 -14 7 -37
10 -52 3 -15 9 -37 14 -50 5 -13 9 -26 10 -31 9 -70 77 -251 141 -378 l38 -75
-47 -29 c-82 -52 -171 -138 -217 -211 -10 -16 -21 -31 -25 -34 -8 -7 -69 -137
-73 -158 -1 -9 -6 -24 -9 -32 -35 -94 -40 -259 -12 -405 8 -38 53 -95 91 -115
45 -23 137 -19 173 8 17 12 35 22 41 22 5 0 10 4 10 8 0 8 65 36 85 37 6 0 15
3 20 6 14 9 132 5 141 -4 4 -4 14 -7 23 -7 9 0 36 -11 61 -24 59 -31 114 -39
159 -24 49 16 56 23 118 101 30 37 60 67 68 67 8 0 29 -21 47 -47 46 -69 204
-223 227 -223 5 0 14 -7 21 -15 11 -13 145 -93 175 -104 5 -2 33 -14 60 -26
60 -28 229 -86 254 -88 14 -1 27 -28 56 -112 20 -60 53 -144 72 -185 19 -41
39 -84 44 -95 5 -11 13 -27 19 -35 5 -8 31 -51 57 -95 26 -44 50 -84 55 -90 4
-5 36 -48 70 -95 72 -98 265 -294 353 -360 33 -25 62 -47 65 -50 3 -3 32 -23
65 -45 33 -21 62 -43 63 -47 2 -4 8 -6 13 -2 5 3 9 0 9 -5 0 -6 6 -11 14 -11
32 0 34 -24 11 -135 -26 -124 -61 -227 -113 -330 -45 -91 -109 -185 -130 -192
-162 -56 -308 -148 -417 -263 -76 -79 -175 -214 -175 -238 0 -6 -3 -12 -8 -14
-12 -5 -71 -133 -83 -180 -20 -82 -30 -143 -35 -220 l-5 -78 1350 0 1349 0 5
23 c3 12 3 72 0 132 -3 61 -6 126 -7 145 -1 19 2 60 6 90 4 30 9 75 12 100 3
25 8 54 10 65 30 139 72 292 86 310 5 6 8 14 8 18 0 11 44 120 54 133 4 6 16
35 26 65 21 59 16 95 -25 189 -36 82 -70 262 -55 287 5 7 25 -1 57 -21 139
-91 181 -116 192 -116 6 0 13 -4 15 -10 4 -13 374 -199 473 -237 44 -18 94
-37 110 -44 17 -7 32 -13 35 -13 3 -1 11 -5 18 -9 6 -5 12 -6 12 -2 0 3 10 1
21 -6 24 -13 236 -76 277 -83 15 -2 29 -5 32 -7 3 -1 10 -3 15 -4 6 -1 24 -4
40 -8 46 -11 76 -17 120 -23 22 -3 51 -7 65 -10 172 -27 471 -23 645 11 171
32 294 68 400 114 22 10 57 24 65 25 37 9 301 162 308 178 2 4 10 8 18 8 8 0
14 5 14 10 0 6 4 10 10 10 5 0 20 9 32 19 13 11 55 45 93 76 74 60 176 156
235 221 58 63 150 182 150 193 0 6 3 11 8 11 4 0 20 25 37 55 16 30 34 55 39
55 5 0 6 3 3 7 -4 3 -1 16 6 27 16 24 77 171 82 195 2 9 10 36 18 61 32 96 41
172 41 340 0 163 -7 229 -40 357 -32 124 -30 115 -37 133 -3 8 -17 44 -30 80
-83 225 -260 500 -456 713 -60 65 -100 87 -156 87 -81 0 -160 -62 -172 -135
-14 -82 -10 -92 68 -202 33 -45 59 -86 59 -91 0 -6 4 -12 8 -14 4 -1 23 -34
40 -73 18 -38 37 -78 42 -87 5 -9 12 -31 15 -49 3 -18 8 -36 10 -39 12 -20 19
-95 19 -190 -1 -105 -27 -223 -60 -275 -7 -11 -12 -22 -11 -25 4 -14 -95 -142
-162 -210 -83 -84 -155 -141 -241 -188 -61 -34 -191 -88 -230 -96 -14 -2 -45
-9 -70 -15 -39 -9 -186 -24 -215 -23 -84 5 -157 13 -178 21 -15 6 -27 9 -27 6
0 -7 -133 41 -180 65 -44 22 -115 68 -154 100 -59 47 -166 169 -166 189 0 6
-4 11 -8 11 -8 0 -65 116 -102 210 -12 30 -30 73 -40 95 -10 22 -32 74 -50
115 -18 41 -52 116 -75 165 -23 50 -43 93 -44 97 0 5 -10 24 -22 44 -30 54
-109 213 -110 221 0 5 -5 14 -11 21 -15 17 -58 94 -65 115 -3 9 -9 17 -14 17
-5 0 -9 5 -9 11 0 6 -24 50 -53 97 -29 48 -60 98 -68 111 -8 14 -18 30 -22 35
-34 47 -107 159 -107 166 0 5 -3 10 -8 12 -4 2 -34 39 -67 83 -68 92 -68 91
-98 126 -12 14 -40 48 -62 74 -67 80 -74 87 -162 178 -74 75 -142 139 -229
214 -12 10 -36 29 -54 43 -18 14 -58 44 -89 67 -31 23 -61 47 -68 53 -7 5 -16
10 -21 10 -5 0 -15 7 -22 15 -7 8 -24 21 -39 28 -14 8 -72 41 -128 75 -57 34
-103 58 -103 55 0 -3 -8 1 -17 9 -17 14 -63 36 -163 80 -60 27 -94 41 -100 43
-3 1 -18 7 -35 14 -33 14 -164 61 -180 65 -8 2 -180 54 -280 86 -43 13 -204
54 -257 65 -29 6 -102 23 -152 36 -22 6 -46 12 -55 14 -9 2 -47 13 -86 25 -38
12 -74 23 -80 24 -11 3 -24 8 -110 43 -205 84 -342 204 -426 373 -31 63 -57
129 -64 164 -3 10 -14 56 -25 101 -25 101 -29 117 -35 180 -3 28 -8 57 -11 66
-2 10 -6 30 -8 45 -2 16 -12 79 -21 139 -9 61 -18 126 -21 145 -28 206 -56
332 -89 415 -35 86 -79 175 -87 175 -4 0 -8 5 -8 11 0 40 -166 219 -265 286
-141 95 -348 179 -490 199 -19 2 -54 9 -100 18 -72 14 -257 24 -504 26 -169 2
-222 13 -306 61 -110 64 -233 116 -295 126 -38 7 -198 12 -203 7z m243 -401
c41 -20 77 -39 80 -42 14 -16 162 -76 210 -85 19 -3 46 -9 60 -12 14 -3 118
-7 231 -9 283 -4 391 -13 524 -42 39 -8 77 -16 85 -18 65 -14 250 -101 250
-117 0 -5 6 -8 13 -8 7 0 45 -33 83 -74 93 -98 158 -222 184 -356 5 -25 11
-54 14 -65 2 -11 7 -42 10 -70 4 -27 9 -61 11 -75 2 -14 9 -61 15 -105 13 -97
18 -132 24 -165 2 -14 10 -59 16 -100 7 -41 14 -84 17 -95 2 -11 5 -31 7 -45
8 -52 59 -245 75 -285 5 -11 18 -46 31 -77 12 -32 36 -83 53 -114 18 -31 37
-65 43 -76 38 -66 169 -202 254 -264 97 -70 257 -156 345 -184 22 -7 45 -16
50 -20 14 -10 233 -76 267 -80 4 -1 22 -6 40 -11 18 -6 47 -12 63 -15 17 -3
41 -9 55 -14 14 -5 48 -13 75 -19 28 -7 59 -13 70 -16 11 -2 54 -14 95 -25 41
-12 82 -23 90 -25 32 -7 318 -104 336 -113 11 -5 55 -25 99 -43 88 -36 274
-131 317 -160 14 -11 29 -19 32 -19 9 0 171 -113 174 -122 2 -4 10 -8 17 -8 8
0 23 -11 34 -26 11 -14 23 -24 26 -24 19 4 320 -286 407 -391 20 -24 49 -60
66 -79 16 -19 57 -73 90 -120 34 -47 65 -90 69 -95 36 -47 73 -105 73 -114 0
-6 3 -11 8 -11 4 0 18 -20 31 -45 13 -25 28 -45 32 -45 5 0 9 -4 9 -10 0 -5
14 -33 31 -62 66 -111 127 -224 202 -373 98 -196 158 -331 289 -645 17 -41 37
-82 45 -91 7 -8 13 -20 13 -26 0 -5 27 -48 60 -95 73 -106 194 -228 293 -296
80 -55 226 -132 251 -132 9 0 16 -4 16 -9 0 -5 17 -12 38 -17 43 -9 51 -11 55
-14 3 -2 21 -6 112 -25 84 -18 326 -24 400 -11 22 4 49 9 60 10 172 24 383
110 555 224 75 51 250 212 306 283 39 48 106 151 135 205 15 30 30 50 33 46 6
-10 0 -157 -9 -224 -14 -110 -89 -303 -148 -382 -4 -6 -21 -32 -38 -59 -17
-26 -35 -47 -40 -47 -5 0 -9 -5 -9 -11 0 -14 -174 -189 -250 -251 -68 -56
-171 -127 -230 -159 -25 -13 -47 -27 -50 -30 -6 -7 -168 -80 -215 -96 -16 -6
-39 -14 -50 -19 -11 -4 -24 -8 -30 -9 -5 -2 -34 -10 -62 -18 -29 -9 -53 -13
-53 -10 0 3 -6 0 -13 -6 -8 -6 -16 -9 -18 -6 -3 2 -22 0 -44 -5 -162 -38 -498
-33 -695 11 -25 5 -55 12 -67 14 -49 10 -64 14 -125 31 -35 10 -106 33 -158
52 -52 18 -101 34 -107 34 -7 1 -13 5 -13 10 0 4 -8 8 -18 8 -10 0 -22 3 -26
8 -4 4 -11 7 -14 8 -29 3 -392 185 -392 196 0 4 -5 8 -10 8 -15 0 -221 126
-308 188 -39 29 -76 52 -81 52 -5 0 -11 3 -13 8 -1 4 -47 40 -101 80 -111 83
-103 77 -212 166 -126 104 -158 133 -291 261 -139 134 -135 126 -139 283 -2
111 11 209 41 300 18 53 65 164 74 172 3 3 22 31 43 64 41 63 132 158 210 220
58 46 80 87 80 146 1 102 -70 173 -174 177 -40 1 -61 -3 -70 -13 -6 -8 -16
-14 -22 -14 -34 0 -223 -187 -305 -303 -77 -109 -167 -299 -187 -397 -2 -8 -4
-15 -5 -15 -1 0 -3 -9 -5 -20 -3 -19 -7 -40 -21 -102 -8 -39 -12 -343 -5 -343
4 0 6 -12 5 -28 0 -15 3 -38 7 -52 5 -14 11 -106 13 -205 2 -99 6 -191 9 -205
3 -14 8 -41 11 -60 6 -41 49 -192 67 -235 7 -16 13 -33 13 -37 1 -3 4 -10 9
-14 4 -4 7 -13 7 -21 0 -11 -50 -94 -112 -185 -10 -15 -18 -31 -18 -36 0 -5
-7 -15 -15 -22 -8 -7 -12 -16 -9 -21 3 -5 2 -9 -3 -9 -4 0 -13 -10 -19 -23 -6
-12 -47 -92 -91 -177 -67 -130 -104 -213 -168 -375 -4 -11 -9 -24 -11 -30 -2
-5 -15 -44 -29 -85 -15 -41 -28 -82 -30 -90 -2 -8 -12 -42 -21 -75 -32 -119
-55 -223 -56 -258 -1 -15 -5 -30 -9 -33 -5 -2 -6 -11 -3 -19 4 -8 0 -17 -7
-20 -8 -3 -209 -6 -447 -8 -468 -2 -452 -4 -413 51 10 15 20 32 22 39 8 23
101 122 152 161 74 56 136 88 219 113 62 18 81 30 121 72 130 136 259 387 322
627 3 13 25 119 30 145 28 159 20 335 -16 335 -5 0 -9 6 -9 13 0 13 -139 97
-160 97 -6 0 -10 5 -10 10 0 6 -6 10 -13 10 -7 0 -22 8 -33 18 -11 9 -33 25
-49 34 -43 24 -126 92 -212 173 -127 118 -257 295 -342 464 -61 120 -132 319
-119 334 2 2 -3 11 -9 19 -31 37 -36 380 -8 518 3 14 8 39 11 55 3 17 12 55
20 85 8 30 17 62 19 70 6 25 33 98 49 133 8 17 27 59 42 92 35 76 36 82 35
130 -1 46 -24 100 -49 114 -9 6 -12 11 -7 11 30 2 -87 43 -122 43 -44 -1 -112
-33 -129 -61 -41 -67 -121 -232 -129 -266 -1 -6 -5 -18 -8 -26 -9 -23 -37
-115 -42 -136 -2 -10 -9 -39 -16 -64 -13 -55 -15 -63 -23 -123 -4 -27 -9 -59
-12 -70 -2 -12 -7 -74 -10 -137 -4 -63 -8 -116 -9 -118 -2 -2 -37 11 -77 28
-182 75 -318 191 -382 324 -20 41 -36 78 -36 82 0 8 -35 39 -68 62 -51 33
-209 19 -309 -29 -48 -22 -141 -91 -156 -116 -8 -12 -36 -11 -77 4 -32 12 -69
15 -172 15 l-106 1 8 23 c17 43 63 108 104 147 43 40 166 107 197 107 10 0 42
9 71 20 58 23 223 67 278 75 83 12 119 16 185 21 38 3 75 10 82 16 7 6 13 8
13 4 0 -4 16 8 36 26 55 50 72 108 52 183 -13 51 -76 112 -125 121 -34 6 -202
-1 -253 -11 -13 -2 -40 -7 -60 -10 -19 -3 -77 -16 -129 -30 -91 -23 -118 -24
-106 -4 4 5 2 9 -3 9 -26 0 -164 350 -188 475 -26 143 -31 200 -28 351 2 136
0 173 -13 198 -28 56 -78 89 -148 100 -22 4 -76 15 -120 26 -44 11 -95 22
-114 25 -19 3 -42 10 -52 16 -11 5 -19 7 -19 4 0 -4 -6 -3 -12 2 -7 4 -19 8
-26 9 -7 2 -59 17 -115 35 -56 18 -104 33 -107 34 -12 4 -47 18 -70 28 -14 6
-29 12 -35 12 -35 5 -259 114 -325 159 -95 64 -152 129 -164 187 -3 13 -10 49
-15 79 -6 30 -13 66 -16 80 -13 64 -16 92 -8 87 9 -6 238 -53 298 -62 23 -3
52 -8 65 -10 43 -9 73 -14 125 -20 28 -3 66 -8 85 -10 134 -19 513 -25 630
-11 36 4 74 9 85 10 102 12 241 50 269 73 39 34 47 43 39 43 -4 0 -3 4 3 8 17
12 32 67 29 106 -5 50 -43 113 -82 137 -23 14 -56 22 -103 25 -122 7 -286 87
-420 204 -56 49 -154 136 -164 145 -86 80 -277 211 -393 269 -88 44 -235 98
-299 110 -16 2 -40 7 -54 10 -14 3 -59 9 -100 12 -80 7 -93 10 -85 24 2 4 7
25 11 46 3 22 10 46 15 55 4 9 10 28 13 44 7 36 77 185 88 185 4 0 8 6 8 13 0
15 83 102 126 133 59 42 184 88 259 96 52 6 118 -11 195 -49z m4265 -5838 c35
-30 66 -55 69 -55 3 0 19 -12 35 -27 35 -33 45 -41 89 -72 18 -12 30 -26 28
-29 -18 -29 -26 -314 -12 -407 10 -66 34 -159 52 -205 15 -36 14 -41 -21 -131
-20 -52 -38 -98 -39 -104 -2 -5 -6 -17 -9 -25 -7 -19 -30 -92 -33 -105 -1 -5
-10 -41 -19 -80 -24 -98 -27 -113 -40 -200 -6 -41 -15 -124 -20 -185 -2 -19
-3 -41 -4 -47 -1 -10 -74 -13 -329 -13 l-328 0 3 28 c2 22 21 111 39 185 2 9
6 27 9 40 7 34 75 227 96 274 10 24 19 46 19 50 1 5 9 26 20 48 11 22 19 46
20 53 0 6 5 12 10 12 6 0 10 7 10 15 0 23 152 312 213 403 9 15 20 35 23 45 4
9 10 17 15 17 5 0 9 7 9 15 0 8 5 15 10 15 6 0 10 7 10 15 0 8 5 15 10 15 6 0
10 5 10 10 0 6 18 35 40 65 40 54 60 111 53 154 -2 14 -19 58 -37 100 -44 97
-76 181 -69 181 3 0 34 -25 68 -55z"/>
<path d="M1810 8054 c-78 -54 -110 -115 -106 -200 8 -140 136 -229 271 -189
148 43 201 220 103 339 -43 53 -82 70 -163 72 -59 1 -76 -2 -105 -22z"/>
</g>
</svg>
